<?xml version="1.0" standalone="no"?>
<!DOCTYPE svg PUBLIC "-//W3C//DTD SVG 20010904//EN"
 "http://www.w3.org/TR/2001/REC-SVG-20010904/DTD/svg10.dtd">
<svg version="1.0" xmlns="http://www.w3.org/2000/svg"
 width="512.000000pt" height="512.000000pt" viewBox="0 0 512.000000 512.000000"
 preserveAspectRatio="xMidYMid meet">
<metadata>
Created by potrace 1.16, written by Peter Selinger 2001-2019
</metadata>
<g transform="translate(0.000000,512.000000) scale(0.100000,-0.100000)"
fill="#000000" stroke="none">
<path d="M1003 3379 c-112 -19 -253 -109 -338 -217 -61 -76 -129 -217 -155
-322 -64 -252 -40 -494 71 -719 115 -233 332 -376 541 -357 136 12 246 72 355
191 72 77 91 111 75 127 -15 15 -47 -12 -69 -59 -31 -67 -101 -131 -188 -174
-74 -37 -94 -42 -172 -46 -76 -5 -96 -2 -136 15 -135 60 -252 249 -304 494
-22 104 -24 387 -4 498 32 179 124 375 212 454 73 67 113 81 219 80 111 -1
179 -26 211 -78 24 -38 18 -68 -22 -113 -67 -77 -8 -177 89 -151 48 13 75 60
68 120 -14 128 -135 235 -293 258 -78 11 -88 11 -160 -1z"/>
<path d="M1640 3370 c0 -11 6 -20 14 -20 31 0 65 -42 89 -113 14 -39 64 -178
112 -307 48 -129 97 -264 110 -300 12 -36 32 -89 44 -118 20 -50 21 -70 21
-367 0 -272 2 -316 16 -329 14 -15 11 -16 -30 -16 -39 0 -46 -3 -46 -20 0 -19
7 -20 150 -20 143 0 150 1 150 20 0 11 -6 20 -13 20 -8 0 -21 8 -30 18 -15 16
-17 55 -17 337 l0 318 44 116 c142 375 189 498 230 606 25 66 46 128 46 138 0
10 8 17 19 17 16 0 31 18 31 36 0 2 -24 4 -53 4 -67 0 -85 -15 -55 -47 26 -28
39 14 -136 -447 -75 -198 -136 -361 -136 -363 0 -2 -4 -3 -8 -3 -5 0 -15 21
-24 48 -9 26 -55 153 -103 282 -47 129 -100 273 -117 320 -36 101 -44 118 -71
148 l-20 22 42 0 c35 0 42 3 39 18 -3 15 -20 17 -151 20 -142 2 -147 2 -147
-18z"/>
<path d="M2650 3370 c0 -11 4 -20 8 -20 5 0 17 -6 28 -14 18 -14 19 -37 24
-775 5 -720 4 -761 -12 -761 -11 0 -18 -8 -18 -20 0 -19 5 -21 57 -18 46 2 59
7 61 21 2 10 -3 17 -11 17 -8 0 -21 8 -31 18 -15 17 -16 80 -14 748 l3 729
107 -240 c59 -132 148 -332 198 -445 51 -113 109 -243 129 -290 166 -378 227
-508 248 -530 22 -23 31 -25 133 -28 102 -4 110 -2 110 15 0 10 -10 23 -22 28
l-23 10 -5 755 c-3 415 -9 761 -13 768 -6 8 -2 12 13 12 15 0 20 5 18 18 -5
24 -111 25 -116 1 -1 -9 8 -20 22 -27 14 -6 28 -22 31 -34 3 -13 4 -345 3
-738 l-3 -715 -33 70 c-19 39 -74 162 -124 275 -382 863 -489 1098 -513 1123
l-26 27 41 0 c34 0 41 3 36 16 -3 9 -6 18 -6 20 0 2 -67 4 -150 4 -143 0 -150
-1 -150 -20z"/>
<path d="M3784 3379 c-4 -7 7 -22 25 -36 l31 -24 0 -737 c0 -643 2 -740 15
-759 15 -21 14 -22 -27 -25 -30 -2 -43 -7 -43 -18 0 -13 53 -15 415 -15 l415
0 3 170 c1 93 0 176 -3 185 -11 27 -55 -35 -55 -78 0 -54 -27 -149 -52 -184
-36 -51 -68 -58 -267 -58 -150 0 -182 3 -195 16 -14 13 -16 62 -16 380 l0 364
100 0 c121 0 140 -12 140 -85 0 -32 6 -51 21 -66 40 -40 44 -23 44 166 0 189
-4 206 -44 166 -16 -16 -21 -34 -21 -70 0 -71 -18 -81 -142 -81 l-98 0 0 353
c0 286 -3 357 -14 380 l-15 27 190 0 c178 0 190 -1 210 -21 16 -16 20 -28 15
-55 -8 -41 15 -90 49 -106 13 -6 39 -8 59 -4 105 20 98 166 -11 212 -42 18
-718 21 -729 3z"/>
</g>
</svg>
